<?xml version="1.0" encoding="UTF-8"?>
<svg version="1.1" xmlns="http://www.w3.org/2000/svg" width="866" height="866">
<path d="M0 0 C3.95047666 0.00315999 7.90020089 -0.02041926 11.85058594 -0.0456543 C109.23258136 -0.28515785 206.61056886 36.92526853 289.21777344 107.31567383 C290.54632924 108.48777808 291.87953694 109.65463465 293.21777344 110.81567383 C294.55160142 111.98177494 295.88491383 113.14846599 297.21777344 114.31567383 C297.96414063 114.96793945 298.71050781 115.62020508 299.47949219 116.29223633 C304.57524096 120.80537937 309.50114796 125.47032678 314.34277344 130.25317383 C315.21421997 131.10516357 315.21421997 131.10516357 316.10327148 131.97436523 C317.51467222 133.38257996 318.87158499 134.8449946 320.21777344 136.31567383 C320.21777344 136.97567383 320.21777344 137.63567383 320.21777344 138.31567383 C320.87777344 138.31567383 321.53777344 138.31567383 322.21777344 138.31567383 C323.52246094 139.57348633 323.52246094 139.57348633 325.09277344 141.44067383 C325.71539063 142.17543945 326.33800781 142.91020508 326.97949219 143.66723633 C328.08744141 144.97821289 328.08744141 144.97821289 329.21777344 146.31567383 C330.11839853 147.34582476 331.02085253 148.37437864 331.92480469 149.40161133 C339.49286577 158.04162501 346.46634384 167.02722318 353.21777344 176.31567383 C353.70745605 176.984375 354.19713867 177.65307617 354.70166016 178.34204102 C388.09950726 224.08376764 411.97003936 276.27745889 425.21777344 331.31567383 C425.42644043 332.18208496 425.63510742 333.04849609 425.85009766 333.94116211 C428.50309593 345.13757797 430.67408184 356.37747683 432.40527344 367.75317383 C432.5600415 368.75026367 432.71480957 369.74735352 432.87426758 370.7746582 C435.77987905 390.8342793 436.56828971 410.91934475 436.53344727 431.16796875 C436.53029057 434.98247001 436.55385358 438.79618951 436.57910156 442.6105957 C436.63675925 464.94241169 434.90312065 487.13916823 430.90527344 509.12817383 C430.69362549 510.31644775 430.48197754 511.50472168 430.26391602 512.72900391 C424.94028142 541.73690591 416.11098012 569.94007589 405.21777344 597.31567383 C404.87166016 598.1896582 404.52554688 599.06364258 404.16894531 599.96411133 C394.33684461 624.51637798 382.01689134 649.22852182 366.37963867 670.63378906 C364.8707962 672.81794871 363.635978 675.14040849 362.34765625 677.45874023 C360.07478794 681.19414135 357.29269924 684.57101368 354.59277344 688.00317383 C353.43079518 689.48380031 352.27182443 690.96679313 351.11621094 692.45239258 C350.60751465 693.09909912 350.09881836 693.74580566 349.57470703 694.41210938 C348.16495448 696.28286497 348.16495448 696.28286497 347.18408203 698.40551758 C345.74668425 701.24690218 343.48715702 703.10336055 341.21777344 705.31567383 C339.7782034 707.02581999 338.36168975 708.75561578 336.96777344 710.50317383 C332.55545646 715.94430691 327.96264968 721.16348141 323.21777344 726.31567383 C322.66863281 726.91524902 322.11949219 727.51482422 321.55371094 728.13256836 C319.71725569 730.13547721 317.87462063 732.13253158 316.03027344 734.12817383 C315.44802002 734.76271484 314.8657666 735.39725586 314.26586914 736.05102539 C310.78476377 739.79708899 307.19871583 743.10689699 303.21777344 746.31567383 C300.86319838 748.60661172 298.57053252 750.94931957 296.29199219 753.31567383 C290.6106466 759.12820501 284.56481406 764.24848914 278.21777344 769.31567383 C276.23685254 770.93853491 274.25764466 772.56348952 272.28027344 774.19067383 C263.61024656 781.31567383 263.61024656 781.31567383 261.21777344 781.31567383 C261.21777344 781.97567383 261.21777344 782.63567383 261.21777344 783.31567383 C259.89777344 783.64567383 258.57777344 783.97567383 257.21777344 784.31567383 C257.21777344 784.97567383 257.21777344 785.63567383 257.21777344 786.31567383 C255.24635778 787.74495018 253.28612837 789.0394314 251.21777344 790.31567383 C250.59491455 790.70795166 249.97205566 791.10022949 249.33032227 791.50439453 C247.29736699 792.78227375 245.25808831 794.04958345 243.21777344 795.31567383 C241.13390309 796.61510853 239.05074424 797.91567666 236.96777344 799.21655273 C235.58996034 800.07605498 234.21104742 800.93379661 232.83105469 801.78979492 C229.39561471 803.92608384 226.02849967 806.11370625 222.71777344 808.44067383 C216.93086966 812.34985361 210.56637517 815.24487298 204.29980469 818.29223633 C202.33396792 819.25855759 200.38332926 820.24916076 198.43652344 821.25317383 C186.94021495 827.1626588 175.12428331 832.2927177 163.21777344 837.31567383 C162.4647998 837.63342773 161.71182617 837.95118164 160.93603516 838.27856445 C153.18537026 841.52464769 145.38649057 844.37525511 137.30957031 846.70581055 C134.7688764 847.44654974 132.2359498 848.21185058 129.70214844 848.97583008 C118.2678075 852.39887275 106.86076286 855.50536452 95.16845703 857.90698242 C93.35314015 858.28731289 91.54481127 858.70058656 89.73730469 859.11645508 C82.87394551 860.68545278 75.99426232 861.86998412 69.03027344 862.87817383 C68.24225342 862.99298096 67.4542334 863.10778809 66.64233398 863.22607422 C63.83726619 863.61656896 61.02801918 863.96436604 58.21777344 864.31567383 C57.0235376 864.48631348 55.82930176 864.65695312 54.59887695 864.83276367 C37.35809803 867.11652932 19.88890061 866.803235 2.53027344 866.81567383 C1.6836829 866.8169994 0.83709236 866.81832497 -0.03515244 866.8196907 C-25.33226883 866.85003146 -49.93939778 866.22217345 -74.74517822 860.75891113 C-76.82615175 860.30611623 -78.91091127 859.87827944 -80.99853516 859.45727539 C-119.07836568 851.75780209 -154.91353473 839.26070744 -189.78222656 822.31567383 C-191.24930931 821.6156892 -192.71670112 820.91635152 -194.18457031 820.21801758 C-200.95426701 816.93415365 -207.33366522 813.23124642 -213.69628906 809.21801758 C-216.53313102 807.4692302 -219.39952595 805.87266384 -222.34472656 804.31567383 C-245.1419756 792.06050527 -267.08878265 774.50412804 -285.8996582 756.85693359 C-288.62148071 754.28451934 -288.62148071 754.28451934 -291.78222656 752.31567383 C-291.78222656 751.65567383 -291.78222656 750.99567383 -291.78222656 750.31567383 C-292.61886841 749.96690186 -292.61886841 749.96690186 -293.47241211 749.61108398 C-296.38176153 747.97943743 -298.38571147 745.95395257 -300.73925781 743.58911133 C-301.2053093 743.12260162 -301.67136078 742.65609192 -302.15153503 742.17544556 C-303.13636001 741.18760643 -304.11876037 740.19734488 -305.09887695 739.20483398 C-306.57430699 737.71134336 -308.05738396 736.22581633 -309.54199219 734.74145508 C-324.78222656 719.44775968 -324.78222656 719.44775968 -324.78222656 716.31567383 C-325.44222656 716.31567383 -326.10222656 716.31567383 -326.78222656 716.31567383 C-328.12623587 714.32283245 -329.45763948 712.32147712 -330.78222656 710.31567383 C-331.54535156 709.55254883 -332.30847656 708.78942383 -333.09472656 708.00317383 C-345.61546425 695.48243614 -355.52377178 679.2413447 -364.66040039 664.15258789 C-365.84197649 662.21783739 -367.05115054 660.30209242 -368.26269531 658.38598633 C-370.84052512 654.26802508 -373.24158372 650.06531652 -375.59472656 645.81567383 C-376.0270459 645.03522705 -376.45936523 644.25478027 -376.90478516 643.45068359 C-380.73434285 636.48714668 -384.35619454 629.43721147 -387.82324219 622.28686523 C-388.7722172 620.33624807 -389.73773374 618.39443907 -390.70410156 616.45239258 C-408.06006668 581.11250782 -419.08293674 542.41735773 -425.53222656 503.69067383 C-425.73114502 502.5136792 -425.93006348 501.33668457 -426.13500977 500.12402344 C-429.46457597 479.07676562 -430.13655625 457.97380383 -430.09790039 436.69946289 C-430.09327513 433.95059823 -430.10019282 431.20217681 -430.1184082 428.45336914 C-430.24212853 409.57498528 -429.30410616 391.04803271 -426.78222656 372.31567383 C-426.67754059 371.53228638 -426.57285461 370.74889893 -426.46499634 369.94177246 C-425.90822462 365.88266164 -425.25605858 361.84809551 -424.53222656 357.81567383 C-424.32025635 356.62594971 -424.10828613 355.43622559 -423.88989258 354.21044922 C-417.62857885 320.20476789 -407.00634462 286.83129171 -392.78222656 255.31567383 C-392.3885791 254.43492187 -391.99493164 253.55416992 -391.58935547 252.64672852 C-374.94644352 215.68516947 -352.3730268 180.89297362 -325.78222656 150.31567383 C-325.16992188 149.60282227 -324.55761719 148.8899707 -323.92675781 148.15551758 C-312.67448407 135.13922943 -300.91266766 122.13317064 -287.75097656 111.00708008 C-285.30318651 108.9041176 -282.95827223 106.70032045 -280.59472656 104.50317383 C-275.1602129 99.5538846 -269.4441865 95.05575209 -263.56396484 90.65600586 C-261.69797917 89.25229781 -259.84692699 87.83040083 -257.99707031 86.40551758 C-248.57289398 79.1835583 -238.8662661 72.57947251 -228.78222656 66.31567383 C-228.01426758 65.83630371 -227.24630859 65.35693359 -226.45507812 64.86303711 C-177.96764294 34.73964692 -125.78690972 15.68471066 -69.78222656 5.31567383 C-68.57977295 5.08388428 -68.57977295 5.08388428 -67.35302734 4.84741211 C-45.11999605 0.56645806 -22.58516086 -0.03757699 0 0 Z " fill="#E6D9D3" transform="translate(429.7822265625,-0.315673828125)"/>
<path d="M0 0 C3.5720439 1.1906813 3.87017873 1.95455409 5.75 5.09375 C6.26989502 5.95000977 6.78979004 6.80626953 7.32543945 7.68847656 C8.15434692 9.08018066 8.15434692 9.08018066 9 10.5 C10.17959477 12.44355557 11.36060195 14.38625456 12.54296875 16.328125 C13.12997559 17.29556641 13.71698242 18.26300781 14.32177734 19.25976562 C16.59051851 22.96421003 18.93739239 26.61314475 21.3125 30.25 C26.03396698 37.49923768 30.71192508 44.77555256 35.375 52.0625 C36.05344971 53.12178711 36.73189941 54.18107422 37.4309082 55.27246094 C38.71283076 57.27607138 39.98970415 59.28292413 41.26074219 61.29345703 C42.34921606 62.98728372 43.46570337 64.66378852 44.62207031 66.31201172 C46.69363119 69.32227093 47.95895768 71.18248143 48.14453125 74.87890625 C46.44924031 79.501901 44.11797014 83.66374678 41.6875 87.9375 C40.58531298 89.91429161 39.48511197 91.89219162 38.38671875 93.87109375 C37.82259277 94.8854248 37.2584668 95.89975586 36.67724609 96.94482422 C34.0367757 101.75455443 31.51827548 106.62550183 29 111.5 C20.59319508 127.70362645 11.8676112 143.71557642 2.65625 159.47705078 C2.17671875 160.30446777 1.6971875 161.13188477 1.203125 161.984375 C0.77676758 162.71366211 0.35041016 163.44294922 -0.08886719 164.19433594 C-1.15016464 165.96050656 -1.15016464 165.96050656 -1 168 C12.35586106 164.09329153 25.61394352 159.90843336 38.84594727 155.60400391 C45.83126077 153.3332855 52.82934781 151.11613829 59.85375977 148.96923828 C65.08367721 147.35809742 70.29075283 145.67652063 75.5 144 C87.73970192 140.07708802 99.93271794 136.19375869 112.39453125 133.02734375 C115.66559288 132.0952861 118.76598128 130.99342129 121.93481445 129.77416992 C125.4764944 128.44651097 129.07942866 127.31955686 132.6875 126.1875 C133.49695068 125.93250732 134.30640137 125.67751465 135.14038086 125.41479492 C143.88746413 122.68410013 152.69841224 120.18075613 161.52392578 117.71728516 C163.26958772 117.21159054 165.00707338 116.6772408 166.73779297 116.12255859 C167.62740723 115.83848145 168.51702148 115.5544043 169.43359375 115.26171875 C170.6390686 114.86472778 170.6390686 114.86472778 171.86889648 114.4597168 C174 114 174 114 177 115 C176.360625 115.763125 175.72125 116.52625 175.0625 117.3125 C163.2641676 131.23548354 163.2641676 131.23548354 152.3125 145.8125 C150 149 150 149 147.68359375 151.28515625 C144.76749413 154.23521336 142.27197971 157.3410257 139.75 160.625 C138.7808446 161.87309264 137.81078081 163.12048038 136.83984375 164.3671875 C136.12223877 165.28902832 136.12223877 165.28902832 135.39013672 166.22949219 C132.68174174 169.67896187 129.8842937 173.05517486 127.09765625 176.44140625 C125.12935014 178.84222655 123.18493255 181.25974538 121.25 183.6875 C120.28320312 184.8940625 120.28320312 184.8940625 119.296875 186.125 C118.0321669 187.70803599 116.76914211 189.29244022 115.51367188 190.8828125 C101.19074701 209.01484254 89.03415642 216.03308516 66.88452148 222.6784668 C56.03126634 225.94159224 45.29483603 229.52030124 34.55737305 233.14331055 C23.70250271 236.80117184 12.83207911 240.34981759 1.73046875 243.19140625 C-0.50826032 243.85437752 -2.62279316 244.60506573 -4.796875 245.4453125 C-7.56834068 246.51005822 -10.30729372 247.3795415 -13.18359375 248.11328125 C-21.40384052 250.34538856 -26.83675262 252.4858526 -31.25 260.0625 C-31.88845715 261.25734753 -32.51898902 262.45647155 -33.140625 263.66015625 C-36.96072749 270.52189496 -42.60341609 274.65329204 -49.91927338 277.42179298 C-57.76809799 279.60287983 -66.54949171 278.7082794 -74.609375 278.5859375 C-76.78939642 278.57472877 -78.96943308 278.56619652 -81.1494751 278.56021118 C-86.85110155 278.53744505 -92.55179186 278.47862775 -98.25305176 278.4119873 C-104.08523907 278.35030012 -109.91757957 278.32313993 -115.75 278.29296875 C-127.16707503 278.22887216 -138.58345927 278.12664199 -150 278 C-148.72764006 275.61159418 -147.45497184 273.22335348 -146.18212891 270.83520508 C-145.82498306 270.16471382 -145.46783722 269.49422256 -145.09986877 268.80341339 C-142.22606348 263.41237859 -139.3114749 258.04465342 -136.375 252.6875 C-129.52424509 240.15675844 -122.76144471 227.57908907 -116 215 C-113.62575767 210.5829254 -111.25090204 206.1661821 -108.875 201.75 C-108.29032959 200.66315918 -107.70565918 199.57631836 -107.10327148 198.45654297 C-103.49074871 191.74822089 -99.84846384 185.0569777 -96.1875 178.375 C-90.83638025 168.60307401 -85.61386886 158.76480499 -80.39813232 148.92025757 C-74.45572659 137.70680059 -68.43190278 126.54103887 -62.32568359 115.41577148 C-58.07140738 107.66327368 -53.85875054 99.89322055 -49.75 92.0625 C-49.316875 91.23943359 -48.88375 90.41636719 -48.4375 89.56835938 C-46.59377864 86.06016734 -44.76308205 82.54957224 -43 79 C-42.34 79 -41.68 79 -41 79 C-40.85751831 77.97024048 -40.85751831 77.97024048 -40.7121582 76.91967773 C-39.85298365 73.39726823 -38.32385679 70.44541345 -36.60546875 67.28515625 C-36.26208969 66.64156662 -35.91871063 65.99797699 -35.56492615 65.33488464 C-34.44542352 63.24063982 -33.31667041 61.15154561 -32.1875 59.0625 C-31.40821628 57.60995533 -30.62941109 56.15715382 -29.85107422 54.70410156 C-27.57691887 50.46422607 -25.29034053 46.23114957 -23 42 C-22.10837158 40.35136963 -22.10837158 40.35136963 -21.19873047 38.66943359 C-17.82122072 32.43410984 -14.41716362 26.21366352 -11 20 C-9.94009052 18.07031999 -8.88019497 16.14063234 -7.8203125 14.2109375 C-5.21645301 9.47235303 -2.60955256 4.73545146 0 0 Z " fill="#3A135B" transform="translate(353,256)"/>
<path d="M0 0 C10.74482259 -0.13957192 21.48942636 -0.24590969 32.23497391 -0.31087303 C37.22566199 -0.34206662 42.21572579 -0.38431821 47.20605469 -0.45263672 C52.03015957 -0.51825954 56.85366742 -0.55379588 61.67818451 -0.56926346 C63.51047909 -0.58027334 65.34274431 -0.60177186 67.1747818 -0.63438034 C78.92666107 -0.83506265 88.92018468 -0.43292168 98.12670898 7.93238831 C102.76667294 12.81466204 106.22317857 18.73230344 109.75 24.4375 C110.98515152 26.40657977 112.22083362 28.37532681 113.45703125 30.34375 C114.36122803 31.79007813 114.36122803 31.79007813 115.28369141 33.265625 C117.6348921 37.0114924 120.02949575 40.72798241 122.4375 44.4375 C122.8610376 45.09234375 123.2845752 45.7471875 123.72094727 46.421875 C126.4657874 50.65916826 129.23621605 54.87905114 132.015625 59.09375 C133.0511853 60.66878296 133.0511853 60.66878296 134.10766602 62.27563477 C135.47664433 64.35682249 136.84943189 66.43551035 138.22631836 68.51147461 C138.84643799 69.45514893 139.46655762 70.39882324 140.10546875 71.37109375 C140.66387451 72.21599365 141.22228027 73.06089355 141.79760742 73.93139648 C143 76 143 76 143 78 C143.66 78 144.32 78 145 78 C145.40412109 77.15888672 145.40412109 77.15888672 145.81640625 76.30078125 C149.92794342 68.30838721 155.3351732 61.09110668 160.67407227 53.89233398 C166.56385712 45.93001445 172.11057951 37.73621207 177.66796875 29.54003906 C178.82910942 27.82768273 179.99138651 26.11609647 181.15478516 24.40527344 C182.27193408 22.76205296 183.38635332 21.11697217 184.49755859 19.46972656 C192.49124951 7.71356149 192.49124951 7.71356149 197.4375 4.25 C197.97246094 3.86328125 198.50742187 3.4765625 199.05859375 3.078125 C204.53322506 0.03788709 209.57652704 -0.28235443 215.66748047 -0.22705078 C216.51691727 -0.22734283 217.36635406 -0.22763489 218.24153137 -0.22793579 C221.03352269 -0.22654869 223.82524312 -0.21101678 226.6171875 -0.1953125 C228.5591721 -0.19158017 230.50115859 -0.18873423 232.44314575 -0.18673706 C237.54277793 -0.17911798 242.64229534 -0.1594843 247.74188232 -0.1373291 C252.95030159 -0.1168335 258.15873949 -0.10772741 263.3671875 -0.09765625 C273.57817529 -0.07623678 283.78907809 -0.04212166 294 0 C292.58842722 4.53048014 291.15376231 7.37262225 288 10.9375 C284.26402617 15.34125659 280.97233854 19.85544038 277.8125 24.6875 C274.86108673 29.19610749 271.87908713 33.61288223 268.59765625 37.890625 C262.24083053 46.28350004 256.30058832 54.98819563 250.375 63.6875 C246.31648184 69.64577501 242.21209872 75.55304507 237.9375 81.359375 C235.70114831 84.40730593 233.50502175 87.48301337 231.3125 90.5625 C227.35253357 96.11808855 223.36984275 101.65693824 219.375 107.1875 C218.86106689 107.89914307 218.34713379 108.61078613 217.81762695 109.34399414 C216.77497265 110.78656612 215.72134633 112.22126198 214.65771484 113.6484375 C212.92535341 116.03091411 212.92535341 116.03091411 211.36181641 118.8359375 C207.2497807 125.52231957 203.6441046 128.28088588 195.99186707 130.2328186 C193.87467473 130.72362278 191.75099985 131.17403393 189.625 131.625 C188.11310901 131.97977512 186.60229452 132.3391657 185.0925293 132.70288086 C181.95955682 133.45396596 178.82291379 134.18515128 175.68212891 134.90283203 C169.05065563 136.43512309 162.48815435 138.21895494 155.91864014 139.99481201 C152.42413832 140.93671833 148.9251575 141.86155106 145.42578125 142.78515625 C144.73774414 142.96687378 144.04970703 143.14859131 143.34082031 143.33581543 C138.24622073 144.67842373 133.14594511 145.99821522 128.04296875 147.30859375 C126.95759575 147.58746178 126.95759575 147.58746178 125.85029602 147.8719635 C122.39046911 148.76022299 118.9298639 149.64527874 115.46801758 150.52563477 C114.25138428 150.83686279 113.03475098 151.14809082 111.78125 151.46875 C110.1734668 151.87770508 110.1734668 151.87770508 108.53320312 152.29492188 C106.03295191 152.90393945 106.03295191 152.90393945 104 154 C101.12207031 154.3828125 101.12207031 154.3828125 98 154 C95.91699219 151.8671875 95.91699219 151.8671875 94.046875 148.875 C93.35021729 147.78356689 92.65355957 146.69213379 91.93579102 145.56762695 C91.20676031 144.3786838 90.47817208 143.18946922 89.75 142 C88.99141343 140.79591277 88.23090558 139.59303388 87.46850586 138.39135742 C85.28791551 134.9423975 83.14273403 131.47259872 81 128 C80.00797202 126.4118465 79.01471719 124.82445778 78.01953125 123.23828125 C76.80517646 121.30035687 75.59280053 119.36143974 74.38891602 117.41699219 C71.34951169 112.51201352 68.17496681 107.70793423 64.95703125 102.91870117 C59.2026159 94.34609208 53.61143186 85.66656394 48 77 C47.51354004 76.24895996 47.02708008 75.49791992 46.52587891 74.72412109 C44.23583261 71.18812496 41.9472178 67.6512086 39.66015625 64.11328125 C37.92014911 61.42175726 36.17795816 58.73167074 34.43359375 56.04296875 C26.23294643 43.39793081 18.10064611 30.70930561 10 18 C9.16299561 16.68950684 9.16299561 16.68950684 8.30908203 15.35253906 C6.86762578 13.09237186 5.43241833 10.82840228 4 8.5625 C3.58484131 7.91273193 3.16968262 7.26296387 2.74194336 6.59350586 C0 2.23096909 0 2.23096909 0 0 Z " fill="#F3595A" transform="translate(352,221)"/>
<path d="M0 0 C-0.639375 0.763125 -1.27875 1.52625 -1.9375 2.3125 C-13.7358324 16.23548354 -13.7358324 16.23548354 -24.6875 30.8125 C-27 34 -27 34 -29.31640625 36.28515625 C-32.23250587 39.23521336 -34.72802029 42.3410257 -37.25 45.625 C-38.2191554 46.87309264 -39.18921919 48.12048038 -40.16015625 49.3671875 C-40.63855957 49.98174805 -41.11696289 50.59630859 -41.60986328 51.22949219 C-44.31825826 54.67896187 -47.1157063 58.05517486 -49.90234375 61.44140625 C-51.87064986 63.84222655 -53.81506745 66.25974538 -55.75 68.6875 C-56.39453125 69.491875 -57.0390625 70.29625 -57.703125 71.125 C-58.9678331 72.70803599 -60.23085789 74.29244022 -61.48632812 75.8828125 C-75.80925299 94.01484254 -87.96584358 101.03308516 -110.11547852 107.6784668 C-120.96873366 110.94159224 -131.70516397 114.52030124 -142.44262695 118.14331055 C-153.29749729 121.80117184 -164.16792089 125.34981759 -175.26953125 128.19140625 C-177.50826032 128.85437752 -179.62279316 129.60506573 -181.796875 130.4453125 C-184.56834068 131.51005822 -187.30729372 132.3795415 -190.18359375 133.11328125 C-198.40384052 135.34538856 -203.83675262 137.4858526 -208.25 145.0625 C-208.88845715 146.25734753 -209.51898902 147.45647155 -210.140625 148.66015625 C-213.96072749 155.52189496 -219.60341609 159.65329204 -226.91927338 162.42179298 C-234.76809799 164.60287983 -243.54949171 163.7082794 -251.609375 163.5859375 C-253.78939642 163.57472877 -255.96943308 163.56619652 -258.1494751 163.56021118 C-263.85110155 163.53744505 -269.55179186 163.47862775 -275.25305176 163.4119873 C-281.08523907 163.35030012 -286.91757957 163.32313993 -292.75 163.29296875 C-304.16707503 163.22887216 -315.58345927 163.12664199 -327 163 C-325.68 160.69 -324.36 158.38 -323 156 C-322.34 156.33 -321.68 156.66 -321 157 C-319.94683594 156.24976563 -318.89367187 155.49953125 -317.80859375 154.7265625 C-308.91404551 148.40833751 -299.94933479 142.22587691 -290.84277344 136.21777344 C-288.42847603 134.62231564 -286.02081754 133.01701129 -283.61376953 131.41064453 C-281.71856635 130.14586237 -279.82272424 128.88204575 -277.92675781 127.6184082 C-275.5380222 126.02611371 -273.15056163 124.43197735 -270.76416016 122.83618164 C-263.31854425 117.85889397 -255.8496793 112.91776907 -248.3671875 107.99609375 C-246.96759796 107.07529526 -246.96759796 107.07529526 -245.53973389 106.13589478 C-241.67896847 103.59623798 -237.81797912 101.05692641 -233.95556641 98.51977539 C-219.20894355 88.83256651 -219.20894355 88.83256651 -204.66064453 78.85180664 C-200.19326042 75.74251058 -195.67028789 72.79344322 -191 70 C-189.36904302 68.92762629 -187.74554541 67.84383905 -186.12890625 66.75 C-185.22462891 66.1415625 -184.32035156 65.533125 -183.38867188 64.90625 C-181.50724122 63.63722698 -179.62702765 62.36639763 -177.74804688 61.09375 C-174.04280964 58.60425252 -170.47036965 56.23284597 -166.46484375 54.25 C-163.71955646 53.11145888 -163.71955646 53.11145888 -162 50 C-164.97 50.495 -164.97 50.495 -168 51 C-164.46755764 48.64503843 -160.86520918 47.56135131 -156.8515625 46.3203125 C-156.04318939 46.06627655 -155.23481628 45.8122406 -154.40194702 45.55050659 C-151.81101547 44.73750593 -149.21805375 43.93120311 -146.625 43.125 C-144.91783341 42.59027565 -143.21080067 42.05512377 -141.50390625 41.51953125 C-134.3606301 39.28094443 -127.2117637 37.06128068 -120.0546875 34.8671875 C-113.85278916 32.96369316 -107.67541436 30.98746752 -101.5 29 C-89.26029808 25.07708802 -77.06728206 21.19375869 -64.60546875 18.02734375 C-61.33440712 17.0952861 -58.23401872 15.99342129 -55.06518555 14.77416992 C-51.5235056 13.44651097 -47.92057134 12.31955686 -44.3125 11.1875 C-43.50304932 10.93250732 -42.69359863 10.67751465 -41.85961914 10.41479492 C-33.11253587 7.68410013 -24.30158776 5.18075613 -15.47607422 2.71728516 C-13.73041228 2.21159054 -11.99292662 1.6772408 -10.26220703 1.12255859 C-9.37259277 0.83848145 -8.48297852 0.5544043 -7.56640625 0.26171875 C-6.76275635 -0.00294189 -5.95910645 -0.26760254 -5.13110352 -0.5402832 C-3 -1 -3 -1 0 0 Z " fill="#662878" transform="translate(530,371)"/>
<path d="M0 0 C4.45126424 1.49046857 6.11870947 4.91762074 8.375 8.75 C9.25785549 10.20519171 10.14204601 11.65957404 11.02734375 13.11328125 C11.50284668 13.89912598 11.97834961 14.6849707 12.46826172 15.49462891 C15.2311072 20.01364713 18.08798577 24.47282155 20.9375 28.9375 C21.8351709 30.34721069 21.8351709 30.34721069 22.75097656 31.78540039 C26.35171194 37.43511636 29.97689787 43.06827812 33.625 48.6875 C37.90661515 55.28253071 42.12200523 61.91719291 46.31347656 68.56982422 C50.15151222 74.66083346 54.00813421 80.7397545 57.875 86.8125 C58.45854248 87.72902344 59.04208496 88.64554687 59.64331055 89.58984375 C61.42861381 92.39339479 63.21424592 95.19673609 65 98 C79.79073988 121.218397 79.79073988 121.218397 86.57568359 131.99072266 C89.1738286 136.11533262 91.78485252 140.23104445 94.4140625 144.3359375 C94.97206543 145.21032471 95.53006836 146.08471191 96.10498047 146.9855957 C97.18111214 148.67134367 98.26072908 150.35487309 99.34423828 152.03588867 C100.06329346 153.16474487 100.06329346 153.16474487 100.796875 154.31640625 C101.22323242 154.98099854 101.64958984 155.64559082 102.08886719 156.33032227 C103 158 103 158 103 160 C91.84662712 160.06973329 80.69330672 160.12292931 69.53975964 160.15543652 C64.35984239 160.17104405 59.18007511 160.19219198 54.00024414 160.22631836 C48.99464267 160.25908776 43.98918479 160.2768899 38.98348427 160.28463173 C37.08065852 160.29014383 35.17783998 160.30090704 33.27507591 160.31719017 C7.48992626 160.52892871 7.48992626 160.52892871 -1.92724609 151.34619141 C-5.54075823 147.25598509 -8.43971836 142.81654182 -11.3125 138.1875 C-11.95711182 137.17413574 -12.60172363 136.16077148 -13.26586914 135.11669922 C-15.19021967 132.08575798 -17.09632003 129.0439527 -19 126 C-20.02215972 124.383306 -21.04549822 122.76735635 -22.0703125 121.15234375 C-23.99267136 118.11943298 -25.90880329 115.08272839 -27.8203125 112.04296875 C-31.62908811 105.99380903 -35.46731061 99.9635629 -39.3125 93.9375 C-39.97048584 92.90254395 -40.62847168 91.86758789 -41.30639648 90.80126953 C-41.94391846 89.80337402 -42.58144043 88.80547852 -43.23828125 87.77734375 C-44.16374756 86.32497314 -44.16374756 86.32497314 -45.10791016 84.84326172 C-47.54472462 81.18143704 -50.2047129 77.70428539 -52.93432617 74.25610352 C-54 72 -54 72 -53.28491211 69.35986328 C-51.86532355 66.7526539 -50.27093416 64.59744058 -48.375 62.3125 C-47.66085937 61.44109375 -46.94671875 60.5696875 -46.2109375 59.671875 C-45.48132813 58.79015625 -44.75171875 57.9084375 -44 57 C-39.07451527 50.95249365 -34.35670761 44.81963103 -29.859375 38.4453125 C-28.05545808 36.07293437 -26.10603243 34.10196673 -24 32 C-22.5955211 30.21024575 -21.22285104 28.39527899 -19.875 26.5625 C-16.54487054 22.06737475 -13.17462247 17.6109707 -9.75 13.1875 C-6.40285706 8.8564301 -3.13222126 4.48951714 0 0 Z " fill="#C92B50" transform="translate(545,374)"/>
<path d="M0 0 C10.74482259 -0.13957192 21.48942636 -0.24590969 32.23497391 -0.31087303 C37.22566199 -0.34206662 42.21572579 -0.38431821 47.20605469 -0.45263672 C52.03015957 -0.51825954 56.85366742 -0.55379588 61.67818451 -0.56926346 C63.51047909 -0.58027334 65.34274431 -0.60177186 67.1747818 -0.63438034 C78.92666107 -0.83506265 88.92018468 -0.43292168 98.12670898 7.93238831 C102.76665166 12.81463966 106.22327722 18.73227132 109.75 24.4375 C110.98642261 26.40920328 112.22340692 28.38055444 113.4609375 30.3515625 C114.06389648 31.31610352 114.66685547 32.28064453 115.28808594 33.27441406 C117.61407707 36.97768917 119.98895435 40.6477448 122.375 44.3125 C129.64240845 55.50361356 136.81453093 66.75618451 144 78 C141.14448492 83.18024029 138.00351387 88.00484232 134.5625 92.8125 C133.78241577 93.9106604 133.78241577 93.9106604 132.98657227 95.03100586 C128.62721236 101.15572101 124.2119194 107.23988408 119.79614258 113.32397461 C115.73645031 118.93473839 111.80411612 124.62367097 107.90673828 130.34790039 C103.78616058 136.37292752 99.44228056 142.20858238 95 148 C91.87898942 144.21630909 89.07929143 140.27408052 86.375 136.1875 C85.941875 135.53587891 85.50875 134.88425781 85.0625 134.21289062 C81.52470572 128.86018743 78.12407821 123.42802508 74.74487305 117.97436523 C71.58222094 112.88720828 68.29942267 107.89291691 64.95874023 102.92138672 C59.20402529 94.34769547 53.61201219 85.66746022 48 77 C47.51354004 76.24895996 47.02708008 75.49791992 46.52587891 74.72412109 C44.23583261 71.18812496 41.9472178 67.6512086 39.66015625 64.11328125 C37.92014911 61.42175726 36.17795816 58.73167074 34.43359375 56.04296875 C26.23294643 43.39793081 18.10064611 30.70930561 10 18 C9.16299561 16.68950684 9.16299561 16.68950684 8.30908203 15.35253906 C6.86762578 13.09237186 5.43241833 10.82840228 4 8.5625 C3.58484131 7.91273193 3.16968262 7.26296387 2.74194336 6.59350586 C0 2.23096909 0 2.23096909 0 0 Z " fill="#7838A6" transform="translate(352,221)"/>
<path d="M0 0 C-0.6290625 1.00417969 -1.258125 2.00835937 -1.90625 3.04296875 C-5.91841043 9.45248575 -9.92584504 15.86387988 -13.875 22.3125 C-21.33583184 34.45139375 -28.84247754 46.57115414 -36.96630859 58.28076172 C-38.90543868 61.12271583 -40.50039744 63.55358912 -41 67 C-41.66 67 -42.32 67 -43 67 C-43.33 68.65 -43.66 70.3 -44 72 C-44.66 72 -45.32 72 -46 72 C-46.28875 72.9075 -46.5775 73.815 -46.875 74.75 C-47.76531776 77.32202908 -48.71494413 79.61346766 -50 82 C-50.66 82 -51.32 82 -52 82 C-53.52299523 84.93720508 -54.80100302 87.9168649 -56 91 C-55.34 91.33 -54.68 91.66 -54 92 C-54.7321875 92.18949219 -55.464375 92.37898438 -56.21875 92.57421875 C-59.94783269 94.48589738 -61.46217751 97.30211674 -63.5 100.8125 C-68.70396551 109.61143109 -74.7869477 116.16171938 -85 119 C-92.46661635 120.06848506 -100.0895378 119.70008198 -107.609375 119.5859375 C-109.78939642 119.57472877 -111.96943308 119.56619652 -114.1494751 119.56021118 C-119.85110155 119.53744505 -125.55179186 119.47862775 -131.25305176 119.4119873 C-137.08523907 119.35030012 -142.91757957 119.32313993 -148.75 119.29296875 C-160.16707503 119.22887216 -171.58345927 119.12664199 -183 119 C-181.68 116.69 -180.36 114.38 -179 112 C-178.34 112.33 -177.68 112.66 -177 113 C-175.94683594 112.24976563 -174.89367187 111.49953125 -173.80859375 110.7265625 C-164.91404551 104.40833751 -155.94933479 98.22587691 -146.84277344 92.21777344 C-144.42847603 90.62231564 -142.02081754 89.01701129 -139.61376953 87.41064453 C-137.71856635 86.14586237 -135.82272424 84.88204575 -133.92675781 83.6184082 C-131.5380222 82.02611371 -129.15056163 80.43197735 -126.76416016 78.83618164 C-119.31854425 73.85889397 -111.8496793 68.91776907 -104.3671875 63.99609375 C-103.43412781 63.38222809 -102.50106812 62.76836243 -101.53973389 62.13589478 C-97.67896847 59.59623798 -93.81797912 57.05692641 -89.95556641 54.51977539 C-75.20894355 44.83256651 -75.20894355 44.83256651 -60.66064453 34.85180664 C-56.19326042 31.74251058 -51.67028789 28.79344322 -47 26 C-45.36904302 24.92762629 -43.74554541 23.84383905 -42.12890625 22.75 C-41.22462891 22.1415625 -40.32035156 21.533125 -39.38867188 20.90625 C-37.50724122 19.63722698 -35.62702765 18.36639763 -33.74804688 17.09375 C-30.04280964 14.60425252 -26.47036965 12.23284597 -22.46484375 10.25 C-19.71955646 9.11145888 -19.71955646 9.11145888 -18 6 C-19.98 6.33 -21.96 6.66 -24 7 C-20.04488519 4.36325679 -15.94776069 3.22924855 -11.4375 1.8125 C-10.12362305 1.38420898 -10.12362305 1.38420898 -8.78320312 0.94726562 C-7.94595703 0.68236328 -7.10871094 0.41746094 -6.24609375 0.14453125 C-5.47966553 -0.09934326 -4.7132373 -0.34321777 -3.92358398 -0.59448242 C-2 -1 -2 -1 0 0 Z " fill="#823EB5" transform="translate(386,415)"/>
<path d="M0 0 C5.28 0 10.56 0 16 0 C16.43828125 1.16789063 16.8765625 2.33578125 17.328125 3.5390625 C21.53778007 14.69912196 25.88073265 25.80167386 30.3125 36.875 C30.57252808 37.52543274 30.83255615 38.17586548 31.10046387 38.8460083 C33.66635595 45.26033361 36.23177379 51.66992641 39 58 C43.68149808 53.58242874 46.81549288 48.40306608 50.25 43 C50.8996875 42.00226562 51.549375 41.00453125 52.21875 39.9765625 C52.83234375 39.01492188 53.4459375 38.05328125 54.078125 37.0625 C54.63918945 36.18722656 55.20025391 35.31195312 55.77832031 34.41015625 C57.30141467 31.8557129 57.30141467 31.8557129 57 28 C55.54124822 25.29966303 55.54124822 25.29966303 53.53515625 22.5 C52.81779297 21.448125 52.10042969 20.39625 51.36132812 19.3125 C50.59580232 18.20781306 49.82951819 17.10365126 49.0625 16 C47.56698958 13.83809141 46.08063321 11.67059945 44.59765625 9.5 C43.93258057 8.5409375 43.26750488 7.581875 42.58227539 6.59375 C41.18017283 4.29534888 40.43647784 2.62738745 40 0 C44.79767791 -0.59887796 49.22301979 -0.84854254 54 0 C57.34065846 2.81021607 59.05049952 6.13933191 61 10 C61.92246372 11.53000031 62.85848296 13.05197302 63.8125 14.5625 C64.19019531 15.20316406 64.56789063 15.84382812 64.95703125 16.50390625 C65.94125784 18.16978702 65.94125784 18.16978702 68 19 C68.25394531 18.32582031 68.50789063 17.65164063 68.76953125 16.95703125 C74.15598402 4.01244476 74.15598402 4.01244476 79 0 C83.88633405 -1.65781824 89.00365405 -0.82943292 94 0 C90.02961212 7.54702766 85.34478865 14.41545615 80.37695312 21.33398438 C79.81298828 22.13771484 79.24902344 22.94144531 78.66796875 23.76953125 C77.89876099 24.84618042 77.89876099 24.84618042 77.11401367 25.94458008 C75.68233213 28.19646562 75.68233213 28.19646562 76 32 C77.40592953 34.41561587 78.84024254 36.65532874 80.4375 38.9375 C81.10724854 39.91916138 81.10724854 39.91916138 81.79052734 40.9206543 C84.0571178 44.23345561 86.36220712 47.51908453 88.66796875 50.8046875 C89.08183838 51.39644775 89.49570801 51.98820801 89.92211914 52.59790039 C91.06902798 54.23271687 92.22567849 55.86068618 93.3828125 57.48828125 C95 60 95 60 95 62 C89.98633475 62.90245974 84.88883232 63.75983175 80 62 C75.88024063 58.46566098 73.34742999 53.49477607 70.90698242 48.7175293 C69.89895548 46.73796424 69.89895548 46.73796424 68 44 C68 43.01 68 42.02 68 41 C67.34 41 66.68 41 66 41 C65.77441406 41.66515625 65.54882812 42.3303125 65.31640625 43.015625 C63.60189055 46.90253892 61.32354136 50.2468728 58.9375 53.75 C58.24817383 54.77673828 58.24817383 54.77673828 57.54492188 55.82421875 C54.16919168 60.83080832 54.16919168 60.83080832 53 62 C51.00035018 62.08758003 48.9976389 62.10696576 46.99609375 62.09765625 C45.78115234 62.09443359 44.56621094 62.09121094 43.31445312 62.08789062 C42.03505859 62.07951172 40.75566406 62.07113281 39.4375 62.0625 C38.15423828 62.05798828 36.87097656 62.05347656 35.54882812 62.04882812 C32.36583978 62.03699545 29.18294238 62.02051068 26 62 C25.32942113 60.2097939 24.6636531 58.41778511 24 56.625 C23.62875 55.62726562 23.2575 54.62953125 22.875 53.6015625 C22 51 22 51 22 49 C8.635 49.495 8.635 49.495 -5 50 C-6.65 53.96 -8.3 57.92 -10 62 C-14.29 62 -18.58 62 -23 62 C-20.46999227 52.94898643 -17.13649027 44.25443126 -13.75 35.5 C-13.16482941 33.9794414 -12.57995111 32.45877027 -11.99536133 30.93798828 C-10.33541227 26.62331989 -8.66887363 22.31122312 -7 18 C-6.57444824 16.90010742 -6.14889648 15.80021484 -5.71044922 14.66699219 C-3.81570244 9.77450006 -1.9101865 4.88652361 0 0 Z " fill="#757376" transform="translate(438,606)"/>
<path d="M0 0 C3.34988751 1.26671374 6.34040312 2.68080624 8 6 C10.53051481 4.83207009 12.39365277 3.67355624 14.5625 1.875 C19.40141646 -0.76440898 23.59699096 -0.79716527 29 0 C33.45146251 2.18526342 36.18885145 4.9394521 39 9 C40.25282725 12.75848174 40.12381835 16.25490919 40.09765625 20.16796875 C40.0962413 20.96278152 40.09482635 21.7575943 40.09336853 22.57649231 C40.08777378 25.11353325 40.07522228 27.65048575 40.0625 30.1875 C40.05748432 31.90820185 40.05292153 33.62890508 40.04882812 35.34960938 C40.03780607 39.5664403 40.02054506 43.78320516 40 48 C35.71 48 31.42 48 27 48 C26.98598145 46.52406372 26.98598145 46.52406372 26.97167969 45.01831055 C26.9318012 41.3669714 26.8660502 37.71647681 26.79248047 34.06567383 C26.76425807 32.48570608 26.74304975 30.90559682 26.72900391 29.32543945 C26.70759035 27.05346155 26.66095466 24.78318729 26.609375 22.51171875 C26.60814636 21.80536789 26.60691772 21.09901703 26.60565186 20.3712616 C26.50961801 17.15469189 26.41379272 15.434264 24.14941406 13.05786133 C21.18829515 11.60050919 19.25887189 11.52474785 16 12 C12.85982745 14.28700436 12.07823219 15.51395277 11.45410156 19.39160156 C11.4331543 20.7112793 11.41220703 22.03095703 11.390625 23.390625 C11.37408875 24.09523865 11.35755249 24.79985229 11.34051514 25.52581787 C11.29208861 27.76730102 11.27067813 30.00810613 11.25 32.25 C11.22183552 33.77347151 11.19190741 35.29691152 11.16015625 36.8203125 C11.08633407 40.54672756 11.03672531 44.2730138 11 48 C7.04 48 3.08 48 -1 48 C-1.33 36.78 -1.66 25.56 -2 14 C-6.03190755 11.98404623 -7.65140589 11.72243016 -12 12 C-15.12938332 12.66519121 -15.12938332 12.66519121 -16.16162109 15.12182617 C-17.15000791 18.51498056 -17.32384069 21.51709371 -17.4140625 25.05078125 C-17.43342865 25.70958786 -17.4527948 26.36839447 -17.4727478 27.04716492 C-17.53215941 29.13548143 -17.57877291 31.22385424 -17.625 33.3125 C-17.66321532 34.73504905 -17.70226909 36.15757584 -17.7421875 37.58007812 C-17.83782796 41.05318074 -17.92199973 44.52645132 -18 48 C-21.96 48 -25.92 48 -30 48 C-30 32.49 -30 16.98 -30 1 C-26.04 1 -22.08 1 -18 1 C-17.67 2.65 -17.34 4.3 -17 6 C-16.21625 5.195625 -15.4325 4.39125 -14.625 3.5625 C-10.14639445 -0.80947208 -6.05344767 -0.67762474 0 0 Z " fill="#727073" transform="translate(354,620)"/>
<path d="M0 0 C4.79767791 -0.59887796 9.22301979 -0.84854254 14 0 C17.34065846 2.81021607 19.05049952 6.13933191 21 10 C21.92246372 11.53000031 22.85848296 13.05197302 23.8125 14.5625 C24.19019531 15.20316406 24.56789063 15.84382812 24.95703125 16.50390625 C25.94125784 18.16978702 25.94125784 18.16978702 28 19 C28.38091797 17.98873047 28.38091797 17.98873047 28.76953125 16.95703125 C34.15598402 4.01244476 34.15598402 4.01244476 39 0 C43.88633405 -1.65781824 49.00365405 -0.82943292 54 0 C50.02961212 7.54702766 45.34478865 14.41545615 40.37695312 21.33398438 C39.81298828 22.13771484 39.24902344 22.94144531 38.66796875 23.76953125 C38.15516357 24.48729736 37.6423584 25.20506348 37.11401367 25.94458008 C35.68233213 28.19646562 35.68233213 28.19646562 36 32 C37.40592953 34.41561587 38.84024254 36.65532874 40.4375 38.9375 C40.88399902 39.59194092 41.33049805 40.24638184 41.79052734 40.9206543 C44.0571178 44.23345561 46.36220712 47.51908453 48.66796875 50.8046875 C49.08183838 51.39644775 49.49570801 51.98820801 49.92211914 52.59790039 C51.06902798 54.23271687 52.22567849 55.86068618 53.3828125 57.48828125 C55 60 55 60 55 62 C49.98633475 62.90245974 44.88883232 63.75983175 40 62 C35.88024063 58.46566098 33.34742999 53.49477607 30.90698242 48.7175293 C29.89895548 46.73796424 29.89895548 46.73796424 28 44 C28 43.01 28 42.02 28 41 C27.34 41 26.68 41 26 41 C25.77441406 41.66515625 25.54882812 42.3303125 25.31640625 43.015625 C23.60189055 46.90253892 21.32354136 50.2468728 18.9375 53.75 C18.24817383 54.77673828 18.24817383 54.77673828 17.54492188 55.82421875 C14.16919168 60.83080832 14.16919168 60.83080832 13 62 C11.00035018 62.08758003 8.9976389 62.10696576 6.99609375 62.09765625 C5.78115234 62.09443359 4.56621094 62.09121094 3.31445312 62.08789062 C2.03505859 62.07951172 0.75566406 62.07113281 -0.5625 62.0625 C-1.84576172 62.05798828 -3.12902344 62.05347656 -4.45117188 62.04882812 C-7.63416022 62.03699545 -10.81705762 62.02051068 -14 62 C-14 61.67 -14 61.34 -14 61 C-13.14535156 60.95101562 -12.29070312 60.90203125 -11.41015625 60.8515625 C-10.30542969 60.77679687 -9.20070313 60.70203125 -8.0625 60.625 C-6.40927734 60.52058594 -6.40927734 60.52058594 -4.72265625 60.4140625 C-3.82417969 60.27742187 -2.92570312 60.14078125 -2 60 C-1.67 59.34 -1.34 58.68 -1 58 C-0.3905957 57.40316406 0.21880859 56.80632813 0.84667969 56.19140625 C4.66854207 52.3019463 7.33531798 47.58529244 10.25 43 C10.8996875 42.00226562 11.549375 41.00453125 12.21875 39.9765625 C12.83234375 39.01492188 13.4459375 38.05328125 14.078125 37.0625 C14.63918945 36.18722656 15.20025391 35.31195312 15.77832031 34.41015625 C17.30141467 31.8557129 17.30141467 31.8557129 17 28 C15.54124822 25.29966303 15.54124822 25.29966303 13.53515625 22.5 C12.81779297 21.448125 12.10042969 20.39625 11.36132812 19.3125 C10.59580232 18.20781306 9.82951819 17.10365126 9.0625 16 C7.56698958 13.83809141 6.08063321 11.67059945 4.59765625 9.5 C3.93258057 8.5409375 3.26750488 7.581875 2.58227539 6.59375 C1.18017283 4.29534888 0.43647784 2.62738745 0 0 Z " fill="#767477" transform="translate(478,606)"/>
<path d="M0 0 C3.69502378 2.17041037 6.29070474 4.85094902 7.78295898 8.97167969 C8.34691635 12.343265 8.28994621 15.69431558 8.265625 19.1015625 C8.26421005 19.85056824 8.2627951 20.59957397 8.26133728 21.37127686 C8.25575534 23.75537162 8.2432062 26.13937128 8.23046875 28.5234375 C8.22545141 30.14322781 8.22088891 31.76301959 8.21679688 33.3828125 C8.20579183 37.34639062 8.18853966 41.30989795 8.16796875 45.2734375 C4.53796875 45.2734375 0.90796875 45.2734375 -2.83203125 45.2734375 C-3.49203125 43.9534375 -4.15203125 42.6334375 -4.83203125 41.2734375 C-5.78078125 42.0984375 -6.72953125 42.9234375 -7.70703125 43.7734375 C-12.26152175 47.04119186 -16.41079006 46.95686484 -21.83203125 46.2734375 C-26.35231857 45.16847838 -28.78753664 42.74077858 -31.83203125 39.2734375 C-33.48822055 34.30486959 -34.15041663 28.2235465 -31.9609375 23.32421875 C-29.07105922 19.56263948 -25.28973663 17.58436865 -20.83203125 16.2734375 C-17.83685149 15.94368673 -14.90284442 15.98540261 -11.89453125 16.0859375 C-10.72567383 16.10624023 -10.72567383 16.10624023 -9.53320312 16.12695312 C-7.63250721 16.16193526 -5.73217291 16.21572791 -3.83203125 16.2734375 C-4.90604233 13.35826458 -5.61013301 11.49533574 -7.83203125 9.2734375 C-10.82239132 8.95275224 -10.82239132 8.95275224 -14.20703125 9.0234375 C-15.34914063 9.01828125 -16.49125 9.013125 -17.66796875 9.0078125 C-20.71111407 9.26328643 -22.22399076 9.82580269 -24.83203125 11.2734375 C-25.82203125 11.2734375 -26.81203125 11.2734375 -27.83203125 11.2734375 C-29.14829817 7.65370348 -29.83203125 5.17776619 -29.83203125 1.2734375 C-19.47164678 -3.21539446 -10.56635367 -4.73722057 0 0 Z " fill="#706E71" transform="translate(308.83203125,622.7265625)"/>
<path d="M0 0 C5.76022685 3.00072119 10.28922017 6.77391052 12.39453125 13.08984375 C12.39453125 17.70984375 12.39453125 22.32984375 12.39453125 27.08984375 C1.83453125 27.08984375 -8.72546875 27.08984375 -19.60546875 27.08984375 C-17.33224861 32.38412793 -17.33224861 32.38412793 -13.60546875 36.08984375 C-6.87247127 37.00675395 -0.31387743 37.00418113 5.39453125 33.08984375 C10.08203125 36.703125 10.08203125 36.703125 11.39453125 38.08984375 C11.39453125 39.07984375 11.39453125 40.06984375 11.39453125 41.08984375 C9.34765625 42.66015625 9.34765625 42.66015625 6.64453125 44.21484375 C5.7628125 44.73304688 4.88109375 45.25125 3.97265625 45.78515625 C-2.32950085 48.97442969 -10.16568478 49.31410312 -16.95703125 47.44140625 C-23.23780023 44.60414768 -27.64930006 39.70658309 -30.48046875 33.46484375 C-32.6872509 26.67271185 -32.99914204 18.32527963 -30.10546875 11.71484375 C-23.73963032 1.02204752 -12.01689135 -4.19780463 0 0 Z " fill="#6E6D70" transform="translate(258.60546875,620.91015625)"/>
<path d="M0 0 C5.38686072 2.04297609 8.33026008 4.92513614 11.14578247 9.97413635 C12.61906247 13.46816953 12.49341021 16.81798937 12.390625 20.55859375 C12.38496521 21.34774673 12.37930542 22.13689972 12.37347412 22.94996643 C12.35125686 25.44645374 12.30109219 27.94145375 12.25 30.4375 C12.22991588 32.13995309 12.21166847 33.84242889 12.1953125 35.54492188 C12.15144072 39.69717914 12.08251908 43.84833828 12 48 C8.04 48 4.08 48 0 48 C-0.00410889 47.08710205 -0.00821777 46.1742041 -0.01245117 45.23364258 C-0.03949402 41.83165222 -0.08863862 38.43144939 -0.15258789 35.0300293 C-0.17571993 33.56074053 -0.1901524 32.09128708 -0.19555664 30.62182617 C-0.20488279 28.50335655 -0.24594127 26.38745935 -0.29296875 24.26953125 C-0.3086792 22.99698486 -0.32438965 21.72443848 -0.34057617 20.41333008 C-1.16419128 16.150108 -2.62821594 14.65426393 -6 12 C-9.97137281 11.2553676 -11.44099683 11.62733122 -14.8125 13.875 C-18.43137737 17.39048088 -18.17079337 19.80697459 -18.31640625 24.7578125 C-18.33718735 25.42086395 -18.35796844 26.08391541 -18.37937927 26.76705933 C-18.44479231 28.88626694 -18.50372105 31.005599 -18.5625 33.125 C-18.60569309 34.56121081 -18.64930764 35.99740902 -18.69335938 37.43359375 C-18.80046499 40.95559594 -18.90175575 44.47773825 -19 48 C-22.96 48 -26.92 48 -31 48 C-31 32.49 -31 16.98 -31 1 C-27.04 1 -23.08 1 -19 1 C-18.67 2.65 -18.34 4.3 -18 6 C-17.05125 5.195625 -16.1025 4.39125 -15.125 3.5625 C-10.33083333 -0.50211957 -6.2018226 -0.78882831 0 0 Z " fill="#767376" transform="translate(610,620)"/>
<path d="M0 0 C16.83 0 33.66 0 51 0 C51 3.96 51 7.92 51 12 C44.73 12 38.46 12 32 12 C32 28.83 32 45.66 32 63 C27.71 63 23.42 63 19 63 C19 46.5 19 30 19 13 C12.73 13 6.46 13 0 13 C0 8.71 0 4.42 0 0 Z " fill="#727073" transform="translate(181,605)"/>
<path d="M0 0 C3.81436766 1.99976557 4.32694563 2.65389127 6.375 6.75 C2.91 9.72 2.91 9.72 -0.625 12.75 C-5.375 10.875 -5.375 10.875 -7.625 9.75 C-13.61022802 9.07015067 -13.61022802 9.07015067 -18.5625 12.125 C-22.28414461 16.8616386 -22.13920549 20.86821085 -21.625 26.75 C-20.08271534 30.86275909 -19.28828593 32.30780938 -15.625 34.75 C-9.36763838 35.36547819 -6.51228687 34.6598295 -1.625 30.75 C1.32909701 32.12154504 3.81508376 33.73863724 6.375 35.75 C6.05849428 38.70405337 5.41726918 39.70897403 3.25 41.8125 C-3.32040772 46.24038347 -8.73345479 47.80140036 -16.625 46.75 C-24.63175441 44.67320726 -29.28936166 39.71987726 -33.7890625 33.015625 C-36.09721938 26.7598727 -35.81873109 17.41113061 -33.75 11.06640625 C-26.51070454 -1.14990485 -13.1226274 -6.18991859 0 0 Z " fill="#777477" transform="translate(662.625,622.25)"/>
<path d="M0 0 C4.29 0 8.58 0 13 0 C13 20.46 13 40.92 13 62 C8.71 62 4.42 62 0 62 C0 41.54 0 21.08 0 0 Z " fill="#767476" transform="translate(557,606)"/>
<path d="M0 0 C0.66 0 1.32 0 2 0 C3.1773496 3.07935966 4.33997891 6.16407516 5.5 9.25 C5.83386719 10.12269531 6.16773438 10.99539063 6.51171875 11.89453125 C6.98544922 13.16103516 6.98544922 13.16103516 7.46875 14.453125 C7.76201172 15.22817383 8.05527344 16.00322266 8.35742188 16.80175781 C9 19 9 19 9 23 C3.72 23 -1.56 23 -7 23 C-6.33007518 19.65037589 -5.66670403 16.75897575 -4.58984375 13.57421875 C-4.32236328 12.77822266 -4.05488281 11.98222656 -3.77929688 11.16210938 C-3.36260742 9.93717773 -3.36260742 9.93717773 -2.9375 8.6875 C-2.65583984 7.85154297 -2.37417969 7.01558594 -2.08398438 6.15429688 C-1.39204818 4.10194376 -0.69639291 2.05084517 0 0 Z " fill="#E4D9D0" transform="translate(445,620)"/>
<path d="M0 0 C3.5 0.5625 3.5 0.5625 5.9375 2.125 C8.08879747 5.48102406 7.98947291 7.64671671 7.5 11.5625 C6.5 14 6.5 14 4.5 15.5625 C0.05855205 16.29348831 -2.71816094 16.08372604 -6.5 13.5625 C-7.63165812 8.96042364 -8.1290893 6.8206786 -6 2.5625 C-3.5 0.5625 -3.5 0.5625 0 0 Z " fill="#787578" transform="translate(681.5,652.4375)"/>
<path d="M0 0 C1.74216797 0.05414062 1.74216797 0.05414062 3.51953125 0.109375 C4.39996094 0.15578125 5.28039062 0.2021875 6.1875 0.25 C6.59627691 4.41952449 6.59683517 6.60870823 4.3125 10.1875 C0.07354077 12.98521309 -3.84579424 13.26017744 -8.8125 12.25 C-11.11446264 10.46014799 -11.72016732 9.70012179 -12.3125 6.8125 C-11.8125 4.25 -11.8125 4.25 -9.70703125 2.10546875 C-6.169481 -0.16219167 -4.15853473 -0.16802161 0 0 Z " fill="#D6CBC7" transform="translate(298.8125,646.75)"/>
<path d="M0 0 C3.42226771 0.71520048 5.45846569 2.06240037 8 4.41796875 C8.33 6.39796875 8.66 8.37796875 9 10.41796875 C2.07 10.41796875 -4.86 10.41796875 -12 10.41796875 C-10.57710459 3.3034917 -7.76901379 -0.54441953 0 0 Z " fill="#CDC2C0" transform="translate(251,629.58203125)"/>
<path d="M0 0 C0.8971875 0.309375 0.8971875 0.309375 1.8125 0.625 C0.4821875 1.2128125 0.4821875 1.2128125 -0.875 1.8125 C-4.22066166 3.44163554 -4.22066166 3.44163554 -6.5 5.9375 C-11.86961334 11.30711334 -17.72066569 15.10115626 -25.1875 16.625 C-25.8475 16.625 -26.5075 16.625 -27.1875 16.625 C-27.1875 15.965 -27.1875 15.305 -27.1875 14.625 C-25.73212432 13.78651196 -24.27309627 12.95436066 -22.8125 12.125 C-22.00039063 11.6609375 -21.18828125 11.196875 -20.3515625 10.71875 C-18.1875 9.625 -18.1875 9.625 -16.1875 9.625 C-16.1875 8.965 -16.1875 8.305 -16.1875 7.625 C-12.70511872 5.26927149 -8.94204221 3.5022711 -5.1875 1.625 C-2.1875 -0.375 -2.1875 -0.375 0 0 Z " fill="#E7C3C3" transform="translate(603.1875,551.375)"/>
<path d="M0 0 C0.66 0 1.32 0 2 0 C-0.07487223 5.37814544 -2.707588 10.39681968 -5.375 15.5 C-6.09816406 16.90572266 -6.09816406 16.90572266 -6.8359375 18.33984375 C-9.22353212 22.91390409 -11.53634348 27.12595764 -15 31 C-14.67 28.36 -14.34 25.72 -14 23 C-13.34 23 -12.68 23 -12 23 C-11.7525 21.96875 -11.505 20.9375 -11.25 19.875 C-10.15348915 16.04104599 -8.29352193 13.27645991 -6 10 C-4.65004821 7.63561076 -3.34632964 5.25002723 -2.05078125 2.85546875 C-1 1 -1 1 0 0 Z " fill="#633577" transform="translate(375,375)"/>
<path d="M0 0 C0.66 0.33 1.32 0.66 2 1 C-4.03312152 5.92559197 -10.233889 10.1437405 -17 14 C-15.31934199 10.23408112 -13.72407321 8.8620366 -10 7 C-9.34 7 -8.68 7 -8 7 C-7.67 6.01 -7.34 5.02 -7 4 C-4.78406817 2.28945613 -2.53809348 1.24678276 0 0 Z " fill="#EDCDCC" transform="translate(613,545)"/>
<path d="M0 0 C0.66 0.33 1.32 0.66 2 1 C-0.64 5.95 -3.28 10.9 -6 16 C-6.66 15.34 -7.32 14.68 -8 14 C-7.566875 13.13761719 -7.566875 13.13761719 -7.125 12.2578125 C-6.40822287 10.81928061 -5.69904111 9.37692106 -5 7.9296875 C-4.505 6.91261719 -4.505 6.91261719 -4 5.875 C-3.67 5.19179688 -3.34 4.50859375 -3 3.8046875 C-2 2 -2 2 0 0 Z " fill="#613176" transform="translate(387,353)"/>
<path d="M0 0 C0 4.92902591 -2.18042866 8.09637006 -5.4375 11.6875 C-7.55789776 13.60102969 -9.6664533 15.35787454 -12 17 C-10.25477062 12.94785821 -7.5771843 9.69396039 -4.875 6.25 C-4.40707031 5.64800781 -3.93914063 5.04601562 -3.45703125 4.42578125 C-2.30774993 2.94813384 -1.15428765 1.47373995 0 0 Z " fill="#EA6166" transform="translate(540,381)"/>
<path d="M0 0 C0.66 1.32 1.32 2.64 2 4 C-7.9 4 -17.8 4 -28 4 C-28 3.67 -28 3.34 -28 3 C-19.09 2.67 -10.18 2.34 -1 2 C-0.67 1.34 -0.34 0.68 0 0 Z " fill="#CD4460" transform="translate(646,530)"/>
<path d="M0 0 C0.66 0.33 1.32 0.66 2 1 C1.41892368 4.7602985 0.34800504 7.53035032 -1.5625 10.8125 C-2.01753906 11.60269531 -2.47257812 12.39289063 -2.94140625 13.20703125 C-3.29074219 13.79871094 -3.64007813 14.39039063 -4 15 C-4.87840996 11.90279155 -4.99435406 10.09354597 -4 7 C-3.34 7 -2.68 7 -2 7 C-1.34 4.69 -0.68 2.38 0 0 Z " fill="#5D2E73" transform="translate(365,391)"/>
<path d="M0 0 C0.66 0.33 1.32 0.66 2 1 C-4.28571429 6.57142857 -4.28571429 6.57142857 -8 7 C-6.88424427 3.65273281 -6.48655378 3.37920252 -3.5625 1.75 C-2.386875 1.1725 -1.21125 0.595 0 0 Z " fill="#D1B9C8" transform="translate(285,544)"/>
<path d="M0 0 C0.66 0 1.32 0 2 0 C0.43358249 4.30764815 -1.68336156 8.06171464 -4 12 C-5 9 -5 9 -4.00390625 6.73828125 C-3.52824219 5.93777344 -3.05257813 5.13726562 -2.5625 4.3125 C-2.08941406 3.50425781 -1.61632812 2.69601562 -1.12890625 1.86328125 C-0.75636719 1.24839844 -0.38382812 0.63351562 0 0 Z " fill="#592A72" transform="translate(357,408)"/>
<path d="M0 0 C3.25548753 3.02295271 5.68977058 6.20462309 8 10 C8 10.66 8 11.32 8 12 C6 12 6 12 4.5625 10.875 C1.79165322 7.54998387 0 4.35815629 0 0 Z " fill="#EB6266" transform="translate(566,405)"/>
<path d="M0 0 C0.66 0.33 1.32 0.66 2 1 C-1.63 4.63 -5.26 8.26 -9 12 C-9 7.8407692 -6.75316432 5.85455565 -4 3 C-1.6875 1.125 -1.6875 1.125 0 0 Z " fill="#F07874" transform="translate(550,225)"/>
<path d="M0 0 C0.99 0.33 1.98 0.66 3 1 C-4.11389522 7.70387244 -4.11389522 7.70387244 -9 8 C-2.92207792 1.75324675 -2.92207792 1.75324675 0 0 Z " fill="#C6B3C6" transform="translate(264,557)"/>
<path d="M0 0 C0.66 0.99 1.32 1.98 2 3 C0.02 5.97 -1.96 8.94 -4 12 C-5 9 -5 9 -4.2578125 7.24609375 C-3.88398438 6.64925781 -3.51015625 6.05242187 -3.125 5.4375 C-2.75632812 4.83808594 -2.38765625 4.23867188 -2.0078125 3.62109375 C-1.67523438 3.08613281 -1.34265625 2.55117188 -1 2 C-0.67 1.34 -0.34 0.68 0 0 Z " fill="#8F4396" transform="translate(494,297)"/>
<path d="M0 0 C-3.65333143 2.63379708 -6.48521602 4.46884894 -11 5 C-11 4.34 -11 3.68 -11 3 C-9.73581754 2.30034557 -8.46334598 1.61565237 -7.1875 0.9375 C-6.47980469 0.55464844 -5.77210938 0.17179688 -5.04296875 -0.22265625 C-3 -1 -3 -1 0 0 Z " fill="#DECDCB" transform="translate(332,241)"/>
<path d="M0 0 C0.66 0.33 1.32 0.66 2 1 C1.19185349 2.33597652 0.37836819 3.668725 -0.4375 5 C-0.88996094 5.7425 -1.34242188 6.485 -1.80859375 7.25 C-2.20175781 7.8275 -2.59492187 8.405 -3 9 C-3.33 9 -3.66 9 -4 9 C-4.25 6.75 -4.25 6.75 -4 4 C-2 1.6875 -2 1.6875 0 0 Z " fill="#EF736F" transform="translate(600,284)"/>
<path d="M0 0 C0.66 0 1.32 0 2 0 C0.47291037 3.43595166 -1.59927045 6.11912454 -4 9 C-4.33 7.68 -4.66 6.36 -5 5 C-4.01 4.67 -3.02 4.34 -2 4 C-2 3.34 -2 2.68 -2 2 C-1.34 2 -0.68 2 0 2 C0 1.34 0 0.68 0 0 Z " fill="#EFCFCD" transform="translate(541,231)"/>
<path d="M0 0 C0.33 0.99 0.66 1.98 1 3 C-0.21484375 4.82421875 -0.21484375 4.82421875 -1.9375 6.6875 C-2.50339844 7.31011719 -3.06929687 7.93273437 -3.65234375 8.57421875 C-4.09707031 9.04472656 -4.54179688 9.51523437 -5 10 C-5 6.60406522 -4.47834052 5.93380119 -2.5 3.3125 C-2.0359375 2.68988281 -1.571875 2.06726563 -1.09375 1.42578125 C-0.7328125 0.95527344 -0.371875 0.48476563 0 0 Z " fill="#DE5867" transform="translate(517,410)"/>
<path d="M0 0 C1.32 0.33 2.64 0.66 4 1 C1.03 2.65 -1.94 4.3 -5 6 C-5.33 5.34 -5.66 4.68 -6 4 C-5.195625 3.525625 -4.39125 3.05125 -3.5625 2.5625 C-1.15246512 1.23099846 -1.15246512 1.23099846 0 0 Z " fill="#E9BBBB" transform="translate(593,555)"/>
<path d="M0 0 C-0.75 1.9375 -0.75 1.9375 -2 4 C-4.125 4.75 -4.125 4.75 -6 5 C-5.6875 3.0625 -5.6875 3.0625 -5 1 C-2 0 -2 0 0 0 Z " fill="#5B2477" transform="translate(368,421)"/>
<path d="M0 0 C-1 1.5 -1 1.5 -3 3 C-5.71846235 3.27345479 -8.25677199 3.13491285 -11 3 C-7.11595442 0.41063628 -4.5725325 -0.12358196 0 0 Z " fill="#744387" transform="translate(373,419)"/>
</svg>
